<svg xmlns="http://www.w3.org/2000/svg" version="1.1" xmlns:xlink="http://www.w3.org/1999/xlink" xmlns:svgjs="http://svgjs.dev/svgjs" width="1000" height="1000" viewBox="0 0 1000 1000"><g transform="matrix(1,0,0,1,-0.49999999999994316,-0.49999999999994316)"><svg viewBox="0 0 280 280" data-background-color="#ffffff" preserveAspectRatio="xMidYMid meet" height="1000" width="1000" xmlns="http://www.w3.org/2000/svg" xmlns:xlink="http://www.w3.org/1999/xlink"><g id="tight-bounds" transform="matrix(1,0,0,1,0.13999999999998636,0.13999999999998636)"><svg viewBox="0 0 279.72 279.72" height="279.72" width="279.72"><g><svg viewBox="0 0 279.72 279.72" height="279.72" width="279.72"><g><svg viewBox="0 0 279.72 279.72" height="279.72" width="279.72"><g id="textblocktransform"><svg viewBox="0 0 279.72 279.72" height="279.72" width="279.72" id="textblock"><g><svg viewBox="0 0 279.72 279.72" height="279.72" width="279.72"><g transform="matrix(1,0,0,1,73.92936372216631,88.20475273512392)"><svg viewBox="0 0 131.8612725556674 103.3104945297522" height="103.3104945297522" width="131.8612725556674"><g><svg xmlns="http://www.w3.org/2000/svg" xmlns:xlink="http://www.w3.org/1999/xlink" version="1.1" x="0" y="0" viewBox="6.947999954223633 20.801000595092773 85.50200653076172 66.98899841308594" enable-background="new 0 0 100 100" xml:space="preserve" height="103.3104945297522" width="131.8612725556674" class="icon-o-0" data-fill-palette-color="accent" id="o-0"><g fill="#4d7e3e" data-fill-palette-color="accent"><path fill="#4d7e3e" d="M90.564 20.801H8.833c-1.041 0-1.885 0.844-1.885 1.885 0 1.041 0.844 1.885 1.885 1.885h17.638c-0.045 4.075 0.491 15.988 7.733 23.741 4.168 4.462 9.817 6.754 16.789 6.826 0.023 0.001 0.045 0.007 0.068 0.007 0.045 0 0.089-0.003 0.134-0.003 0.045 0 0.089 0.003 0.134 0.003 0.023 0 0.045-0.006 0.068-0.007 6.972-0.072 12.621-2.364 16.789-6.826 7.242-7.753 7.778-19.666 7.733-23.741h14.646c1.041 0 1.885-0.844 1.885-1.885C92.449 21.645 91.605 20.801 90.564 20.801zM65.43 45.739c-3.467 3.712-8.257 5.605-14.236 5.633-5.972-0.028-10.758-1.917-14.224-5.621-6.286-6.717-6.748-17.638-6.722-21.179h19.079v21.424c0 1.041 0.844 1.885 1.885 1.885 1.041 0 1.885-0.844 1.885-1.885V24.571h19.046C72.174 28.105 71.725 39 65.43 45.739z" data-fill-palette-color="accent"></path><path fill="#4d7e3e" d="M51.095 61.239c0 0-15.234 26.146 0.27 26.551 15.311-0.402 0.048-26.551 0.048-26.551H51.095z" data-fill-palette-color="accent"></path></g></svg></g></svg></g><path d="M22.869 180.742l-8.203 2.482 0.529 1.747c0.38 1.256 1.065 2.094 2.054 2.516 0.989 0.421 2.102 0.445 3.338 0.07v0c1.139-0.345 1.978-0.991 2.518-1.938 0.542-0.941 0.634-2 0.278-3.178v0zM12.719 181.938l11.077-3.352 1.043 3.446c0.497 1.644 0.394 3.145-0.312 4.503-0.697 1.362-1.835 2.283-3.414 2.76v0c-1.644 0.497-3.146 0.412-4.507-0.257-1.361-0.669-2.306-1.877-2.835-3.625v0zM16.926 194.86l-0.607-1.646 10.857-4.004 0.607 1.646zM30.721 198.833v0l-1.6 0.695c0.133-0.898 0.006-1.794-0.382-2.687v0c-0.251-0.577-0.577-0.973-0.981-1.188-0.397-0.218-0.806-0.236-1.228-0.053-0.422 0.183-0.687 0.49-0.795 0.92-0.111 0.439-0.167 1.057-0.168 1.853v0c-0.001 0.524-0.016 0.939-0.044 1.247-0.029 0.307-0.098 0.673-0.209 1.097-0.102 0.428-0.291 0.79-0.568 1.087-0.274 0.303-0.634 0.552-1.08 0.746v0c-0.93 0.404-1.809 0.392-2.637-0.038-0.819-0.426-1.457-1.166-1.916-2.22v0c-0.504-1.16-0.696-2.222-0.577-3.188v0l1.684-0.731c-0.259 1.1-0.152 2.196 0.322 3.288v0c0.251 0.577 0.582 0.975 0.994 1.193 0.418 0.216 0.863 0.222 1.335 0.018v0c0.279-0.121 0.493-0.332 0.642-0.633 0.156-0.304 0.243-0.596 0.261-0.876 0.015-0.287 0.029-0.706 0.041-1.257v0c0.012-0.329 0.018-0.561 0.019-0.694 0.007-0.136 0.025-0.357 0.054-0.664 0.026-0.314 0.06-0.549 0.102-0.708 0.039-0.164 0.103-0.373 0.192-0.626 0.092-0.246 0.204-0.446 0.337-0.599 0.132-0.153 0.299-0.314 0.498-0.482 0.194-0.165 0.424-0.306 0.691-0.422v0c0.899-0.391 1.755-0.372 2.568 0.057 0.807 0.431 1.435 1.164 1.884 2.2v0c0.415 0.955 0.602 1.843 0.561 2.665zM35.606 208.167v0l-1.524 0.807c0.002-0.575-0.044-1.067-0.138-1.476-0.094-0.409-0.288-0.892-0.582-1.448v0c-0.541-1.022-1.338-1.69-2.392-2.005-1.054-0.315-2.151-0.17-3.293 0.434v0c-1.165 0.617-1.913 1.444-2.243 2.484-0.327 1.045-0.196 2.123 0.391 3.235v0c0.519 0.98 1.209 1.671 2.071 2.071v0l-1.577 0.835c-0.75-0.406-1.421-1.168-2.013-2.286v0c-0.806-1.524-0.989-3.026-0.548-4.507 0.438-1.471 1.455-2.629 3.051-3.472v0c1.548-0.819 3.067-0.999 4.556-0.54 1.487 0.468 2.625 1.449 3.416 2.943v0c0.579 1.094 0.854 2.069 0.825 2.925zM31.75 211.821v0c1.504-0.974 2.974-1.354 4.409-1.14 1.436 0.214 2.593 0.999 3.472 2.355v0c0.897 1.385 1.149 2.768 0.755 4.151-0.39 1.388-1.342 2.573-2.857 3.555-1.521 0.985-2.999 1.371-4.435 1.157-1.432-0.208-2.589-0.993-3.471-2.355v0c-0.879-1.356-1.124-2.736-0.736-4.14 0.388-1.403 1.342-2.598 2.863-3.583zM35.894 212.435c-0.978-0.092-2.023 0.223-3.135 0.944-1.118 0.724-1.832 1.562-2.143 2.512-0.311 0.951-0.179 1.868 0.394 2.754v0c0.588 0.908 1.368 1.41 2.341 1.505 0.978 0.092 2.034-0.23 3.169-0.966v0c1.124-0.728 1.839-1.558 2.145-2.489 0.31-0.926 0.17-1.846-0.422-2.76v0c-0.585-0.902-1.368-1.402-2.349-1.5zM47.782 224.472l1.174 1.489-11.567 4.022-1.294-1.64 6.668-10.233 1.174 1.489-2.704 4.006c-0.569 0.862-1.124 1.675-1.667 2.439-0.543 0.764-0.939 1.309-1.19 1.637v0l-0.379 0.518c1.304-0.563 3.052-1.245 5.246-2.046v0zM46.194 232.562l-2.633 2.411 3.315 3.62-1.092 1-4.507-4.922 8.535-7.815 4.452 4.862-1.092 1-3.26-3.56-2.633 2.411 2.883 3.149-1.084 0.993zM56.886 236.185l-1.102-1.035-2.89 3.074 1.161 1.091c0.537 0.505 1.075 0.747 1.615 0.725 0.53-0.021 1.015-0.266 1.455-0.734v0c0.963-1.025 0.883-2.065-0.239-3.121zM53.498 246.852l-1.537-1.445 1.035-5.055-1.116-1.049-3.008 3.2-1.286-1.209 7.927-8.431 2.35 2.209c0.966 0.908 1.49 1.846 1.572 2.814 0.082 0.959-0.259 1.845-1.023 2.658v0c-0.561 0.587-1.181 0.95-1.861 1.09-0.68 0.131-1.367 0.047-2.06-0.252v0zM59.866 251.889l-1.414-1.055 6.919-9.276 1.675 1.249-0.608 5.582c-0.119 1.042-0.238 1.999-0.358 2.871-0.11 0.871-0.193 1.48-0.249 1.826v0l-0.098 0.522c0.568-0.875 1.455-2.12 2.66-3.735v0l2.905-3.895 1.414 1.055-6.919 9.277-1.675-1.249 0.586-5.586c0.106-1.001 0.22-1.94 0.344-2.819 0.114-0.877 0.206-1.504 0.276-1.881v0l0.086-0.556c-0.611 0.978-1.495 2.242-2.651 3.792v0zM72.402 254.49l-1.894 3.026 4.162 2.604-0.786 1.256-5.657-3.541 6.139-9.81 5.588 3.498-0.785 1.255-4.093-2.561-1.894 3.026 3.62 2.265-0.78 1.247zM83.874 258.205l2.877-3.162 1.402 0.689-0.724 4.232-0.992 5.581c1.295-1.684 2.448-3.14 3.458-4.368v0l2.803-3.403 1.602 0.787-7.645 9.138-1.893-0.931 0.623-3.774 0.94-5.29c-0.717 0.861-1.907 2.193-3.57 3.997v0l-2.571 2.816-1.912-0.939 2.375-11.728 1.657 0.814-0.924 4.315-1.251 5.42c1.314-1.494 2.563-2.892 3.745-4.194zM105.262 262.445l-0.48 1.4-4.528-1.552-1.231 3.588 3.982 1.365-0.477 1.391-3.982-1.365-1.565 4.567-1.67-0.572 3.753-10.947zM108.377 263.25l-2.612 9.663 4.573 1.236-0.408 1.508-6.276-1.696 3.019-11.172zM115.571 271.733l-0.285 0.534 3.639 0.68-0.073-0.602c-0.184-1.41-0.328-2.575-0.431-3.496-0.109-0.928-0.17-1.504-0.183-1.726v0l-0.031-0.336c-0.219 0.509-1.098 2.158-2.636 4.946zM121.364 277.787l-1.854-0.346-0.378-2.949-4.596-0.858-1.427 2.612-1.844-0.344 6.061-10.641 2.274 0.424zM131.978 267.208l1.888 0.183-5.107 11.131-2.08-0.202-2.767-11.896 1.888 0.183 1.018 4.726c0.228 1.007 0.43 1.971 0.606 2.891 0.175 0.921 0.294 1.584 0.357 1.992v0l0.111 0.632c0.496-1.331 1.215-3.065 2.157-5.201v0zM134.481 273.099v0c0.014-1.792 0.506-3.228 1.475-4.309 0.969-1.081 2.261-1.615 3.877-1.602v0c1.65 0.013 2.944 0.565 3.882 1.654 0.945 1.089 1.41 2.537 1.395 4.342-0.015 1.812-0.506 3.259-1.475 4.34-0.962 1.081-2.255 1.615-3.877 1.602v0c-1.616-0.013-2.903-0.568-3.862-1.664-0.958-1.096-1.43-2.551-1.415-4.363zM137.275 269.977c-0.615 0.766-0.927 1.811-0.938 3.137-0.011 1.332 0.295 2.389 0.918 3.172 0.623 0.783 1.461 1.178 2.516 1.186v0c1.082 0.009 1.93-0.367 2.545-1.125 0.615-0.766 0.928-1.825 0.938-3.177v0c0.011-1.339-0.288-2.393-0.897-3.162-0.602-0.769-1.448-1.158-2.537-1.167v0c-1.075-0.009-1.923 0.37-2.545 1.136zM149.956 268.531l-1.507 0.118 0.327 4.206 1.588-0.123c0.735-0.057 1.276-0.293 1.624-0.706 0.341-0.406 0.487-0.93 0.437-1.571v0c-0.109-1.402-0.932-2.044-2.469-1.924zM155.562 278.218l-2.104 0.163-3.04-4.168-1.527 0.119 0.341 4.378-1.76 0.137-0.897-11.538 3.216-0.25c1.321-0.103 2.368 0.141 3.139 0.733 0.764 0.585 1.19 1.433 1.276 2.545v0c0.056 0.809-0.093 1.513-0.446 2.11-0.361 0.591-0.885 1.042-1.573 1.354v0zM162.008 265.987v0l0.261 1.725c-0.834-0.359-1.732-0.466-2.695-0.321v0c-0.622 0.094-1.089 0.308-1.401 0.643-0.313 0.328-0.435 0.719-0.366 1.173 0.069 0.455 0.297 0.789 0.685 1.004 0.396 0.221 0.978 0.433 1.748 0.639v0c0.506 0.136 0.904 0.257 1.194 0.363 0.29 0.107 0.625 0.268 1.006 0.484 0.387 0.208 0.689 0.484 0.905 0.827 0.223 0.342 0.37 0.754 0.443 1.236v0c0.152 1.003-0.086 1.849-0.714 2.539-0.622 0.682-1.501 1.109-2.637 1.281v0c-1.25 0.189-2.327 0.102-3.23-0.261v0l-0.274-1.815c0.997 0.533 2.084 0.711 3.26 0.533v0c0.622-0.094 1.091-0.312 1.409-0.654 0.317-0.349 0.436-0.777 0.36-1.285v0c-0.045-0.301-0.194-0.562-0.447-0.784-0.253-0.228-0.513-0.387-0.78-0.477-0.273-0.089-0.674-0.209-1.203-0.362v0c-0.315-0.096-0.537-0.162-0.666-0.197-0.129-0.042-0.339-0.116-0.628-0.223-0.296-0.106-0.516-0.199-0.658-0.28-0.149-0.08-0.334-0.196-0.555-0.347-0.214-0.152-0.379-0.312-0.493-0.479-0.114-0.167-0.227-0.369-0.338-0.606-0.11-0.23-0.187-0.488-0.23-0.775v0c-0.147-0.969 0.092-1.792 0.714-2.467 0.624-0.669 1.494-1.087 2.611-1.257v0c1.03-0.156 1.936-0.108 2.719 0.143zM173.711 266.939l-0.016-4.276 1.499-0.439 2.326 3.609 3.04 4.785c-0.183-2.116-0.317-3.969-0.402-5.557v0l-0.233-4.403 1.713-0.502 0.538 11.902-2.025 0.593-2.09-3.203-2.882-4.535c0.053 1.119 0.076 2.905 0.069 5.359v0l0.007 3.813-2.044 0.599-6.173-10.25 1.771-0.519 2.235 3.805 2.74 4.841c-0.04-1.989-0.064-3.863-0.073-5.622zM188.61 269.846l-1.642 0.617-4.074-10.831 1.642-0.618zM185.765 258.489l7.152-3.186 0.603 1.352-2.771 1.234 4.107 9.219-1.621 0.722-4.107-9.218-2.761 1.23zM202.394 255.874l-2.343-4.394 1.558-0.831 5.444 10.212-1.557 0.83-2.381-4.466-4.591 2.448 2.381 4.466-1.557 0.831-5.445-10.212 1.557-0.83 2.343 4.394zM205.839 247.938l6.43-4.468 0.845 1.216-2.491 1.731 5.759 8.287-1.457 1.013-5.759-8.288-2.482 1.725zM219.442 246.221l0.224 0.564 2.869-2.34-0.507-0.333c-1.195-0.77-2.178-1.413-2.947-1.928-0.779-0.516-1.258-0.841-1.436-0.975v0l-0.276-0.194c0.248 0.496 0.939 2.232 2.073 5.206zM227.806 245.708l-1.462 1.192-2.496-1.615-3.623 2.955 1.073 2.776-1.454 1.186-4.21-11.5 1.792-1.462zM226.214 231.9v0l1.203 1.263c-0.889 0.184-1.687 0.611-2.392 1.283v0c-0.456 0.434-0.715 0.877-0.779 1.329-0.068 0.448 0.056 0.838 0.373 1.172 0.317 0.333 0.696 0.476 1.137 0.43 0.451-0.046 1.05-0.206 1.798-0.48v0c0.492-0.179 0.888-0.308 1.186-0.386 0.298-0.079 0.666-0.139 1.102-0.181 0.436-0.051 0.842 0.002 1.216 0.159 0.379 0.153 0.736 0.406 1.071 0.758v0c0.699 0.735 0.99 1.564 0.872 2.49-0.118 0.915-0.594 1.769-1.427 2.561v0c-0.916 0.872-1.848 1.418-2.795 1.639v0l-1.266-1.33c1.122-0.135 2.115-0.612 2.977-1.433v0c0.456-0.434 0.715-0.881 0.779-1.344 0.059-0.467-0.088-0.887-0.442-1.259v0c-0.21-0.22-0.482-0.349-0.816-0.386-0.339-0.042-0.643-0.023-0.912 0.056-0.275 0.084-0.673 0.215-1.193 0.394v0c-0.313 0.102-0.533 0.176-0.659 0.22-0.13 0.04-0.344 0.099-0.643 0.178-0.303 0.083-0.537 0.133-0.699 0.148-0.168 0.02-0.386 0.031-0.654 0.034-0.263-0.002-0.489-0.038-0.679-0.11-0.19-0.072-0.397-0.172-0.623-0.302-0.222-0.125-0.433-0.293-0.634-0.504v0c-0.676-0.71-0.952-1.521-0.829-2.431 0.128-0.906 0.6-1.748 1.418-2.526v0c0.754-0.718 1.524-1.199 2.31-1.442zM226.774 230.623l5.263-5.797 1.096 0.995-2.038 2.245 7.472 6.784-1.193 1.314-7.472-6.783-2.032 2.237zM238.96 226.585l2.788 2.23 3.065-3.835 1.157 0.925-4.167 5.213-9.039-7.227 4.116-5.149 1.157 0.925-3.015 3.771 2.789 2.229 2.666-3.335 1.149 0.918zM250.706 218.833l-0.915 1.497-9.409-6.797 1.095-1.792 4.413 0.891c0.756 0.137 1.548 0.3 2.376 0.489 0.837 0.187 1.481 0.339 1.932 0.456v0l0.687 0.159c-1.052-1.261-2.126-2.595-3.223-4.003v0l-2.767-3.582 1.095-1.791 10.429 5.127-0.915 1.497-4.08-2.019-4.145-2.105c0.972 1.197 1.998 2.481 3.077 3.854v0l2.836 3.624-0.724 1.185-4.493-0.915-4.709-1.048c0.427 0.261 1.677 1.132 3.752 2.614v0zM254.388 202.378l0.445 0.412 1.582-3.347-0.601-0.082c-1.41-0.181-2.574-0.338-3.49-0.472-0.925-0.131-1.497-0.218-1.716-0.261v0l-0.333-0.057c0.437 0.341 1.808 1.61 4.113 3.807zM261.717 198.315l-0.807 1.705-2.948-0.384-1.999 4.227 2.164 2.044-0.802 1.696-8.75-8.568 0.989-2.09zM251.346 193.048l2.777-7.322 1.384 0.526-1.075 2.835 9.436 3.578-0.629 1.66-9.436-3.578-1.072 2.826zM261.209 184.83l3.411 1.055 1.449-4.69 1.415 0.437-1.97 6.376-11.057-3.417 1.947-6.299 1.414 0.437-1.425 4.613 3.411 1.054 1.261-4.079 1.405 0.434z" fill="#4d7e3e" data-fill-palette-color="primary"></path><path d="M0 106.778l5.91-17.338 2.265 0.772-2.542 7.46 24.586 8.38-0.841 2.467-24.586-8.38-2.526 7.411zM32.356 75.462l1.102 1.531 6.221-9.064-1.858-0.501-14.405-4.068c0.719 0.936 3.699 4.97 8.94 12.102zM51.622 68.523l-1.595 2.324-8.016-2.229-7.094 10.336 4.94 6.712-1.596 2.324-17.725-24.306 2.147-3.127zM55.916 28.102v0l1.849 2.248c-0.81 0.08-1.735 0.35-2.774 0.811-1.044 0.456-1.965 1.012-2.764 1.67v0c-1.452 1.194-2.33 2.49-2.634 3.886-0.304 1.397 0.006 2.657 0.93 3.78v0c0.481 0.585 1.023 1.015 1.625 1.29 0.603 0.265 1.329 0.365 2.176 0.298 0.857-0.066 1.57-0.162 2.139-0.289 0.574-0.122 1.413-0.348 2.516-0.677v0c1.029-0.303 1.814-0.52 2.355-0.65 0.542-0.139 1.277-0.262 2.205-0.369 0.929-0.116 1.707-0.112 2.333 0.011 0.627 0.123 1.31 0.38 2.051 0.769 0.735 0.393 1.397 0.948 1.985 1.663v0c1.568 1.906 2.129 3.887 1.685 5.943-0.45 2.06-1.673 3.911-3.668 5.551v0c-2.256 1.856-4.568 2.956-6.936 3.303v0l-1.843-2.241c1.065-0.036 2.245-0.315 3.54-0.837 1.295-0.522 2.473-1.22 3.533-2.091v0c1.54-1.267 2.462-2.59 2.764-3.968 0.307-1.373-0.058-2.689-1.093-3.947v0c-0.786-0.956-1.75-1.463-2.893-1.521-1.137-0.063-2.548 0.143-4.232 0.618v0c-0.241 0.058-0.757 0.203-1.548 0.433-0.791 0.23-1.35 0.392-1.676 0.486-0.325 0.084-0.846 0.201-1.562 0.352-0.711 0.147-1.261 0.218-1.649 0.214-0.383-0.009-0.885-0.033-1.506-0.074-0.611-0.04-1.125-0.16-1.543-0.36-0.418-0.199-0.877-0.47-1.377-0.811-0.496-0.336-0.948-0.753-1.355-1.249v0c-1.516-1.843-2.037-3.823-1.563-5.938 0.475-2.115 1.665-3.957 3.572-5.525v0c1.822-1.499 3.608-2.425 5.358-2.779zM74.66 15.75l16.813-7.269 0.949 2.197-7.233 3.127 10.309 23.842-2.392 1.034-10.309-23.841-7.187 3.107zM116.766 17.865l1.755 10.411 12.582-2.12 0.399 2.37-15.152 2.554-4.715-27.974 14.902-2.512 0.398 2.36-12.332 2.079 1.764 10.461 10.881-1.834 0.4 2.371zM168.947 32.66l-2.478-0.842 11.001-26.223 3.39 1.152 0.16 11.034 0.1 15.277c3.552-4.42 6.774-8.407 9.666-11.958v0l7.014-8.597 3.389 1.152-6.861 27.63-2.468-0.838 2.694-10.954 3.34-13.358c-3.102 3.895-6.152 7.69-9.15 11.384v0l-7.091 8.699-2.91-0.989-0.13-11.153-0.135-14.229c-1.607 3.931-3.329 8.074-5.166 12.428v0zM218.62 43.914l-1.617 0.973 8.526 6.942 0.651-1.812 5.233-14.024c-0.992 0.64-5.256 3.28-12.793 7.921zM223.96 63.683l-2.187-1.78 2.878-7.807-9.721-7.916-7.093 4.374-2.187-1.78 25.675-15.677 2.942 2.395zM254.996 56.695l10.324 15.13-1.977 1.35-4.442-6.51-21.455 14.641-1.469-2.153 21.455-14.641-4.414-6.468zM260.907 98.435l-9.888 3.701 4.473 11.95-2.251 0.842-5.387-14.391 26.568-9.944 5.298 14.153-2.242 0.839-4.384-11.712-9.935 3.719 3.868 10.335-2.251 0.843z" fill="#4d7e3e" data-fill-palette-color="primary"></path><path d="M1.419 146.274c0-6.038 4.895-10.934 10.933-10.934 6.038 0 10.934 4.895 10.934 10.934 0 6.038-4.895 10.934-10.934 10.933-6.038 0-10.934-4.895-10.933-10.933zM256.758 146.274c0-6.038 4.895-10.934 10.933-10.934 6.038 0 10.934 4.895 10.934 10.934 0 6.038-4.895 10.934-10.934 10.933-6.038 0-10.934-4.895-10.933-10.933z" fill="#4d7e3e" data-fill-palette-color="primary"></path></svg></g></svg></g></svg></g><g></g></svg></g><defs></defs></svg><rect width="279.72" height="279.72" fill="none" stroke="none" visibility="hidden"></rect></g></svg></g></svg>